# xmcd
#
# Track frame offsets: 
#        150
#        19007
#        41566
#        66609
#        94451
#        117753
#        139754
#        165257
#        183093
#        200073
#
# Disc length: 3067 seconds
#
# Revision: 1
# Processed by: cddbd v1.5.2PL0 Copyright (c) Steve Scherf et al.
# Submitted via: ExactAudioCopyFreeDBPlugin 1.0
#
DISCID=890bf90a
DTITLE=Nils Wülker - Just Here, Just Now
DYEAR=2012
DGENRE=Jazz
TTITLE0=Lakeside
TTITLE1=Goodbye Sorrow
TTITLE2=Walking On Air
TTITLE3=Just Here, Just Now
TTITLE4=Today's Gravity
TTITLE5=September Skies
TTITLE6=High And Rising
TTITLE7=All We Need
TTITLE8=Itchy Feet
TTITLE9=Farewell
EXTD=YEAR: 2012
EXTT0=
EXTT1=
EXTT2=
EXTT3=
EXTT4=
EXTT5=
EXTT6=
EXTT7=
EXTT8=
EXTT9=
PLAYORDER=
